<svg width="128" height="128" viewBox="0 0 128 128" fill="none" xmlns="http://www.w3.org/2000/svg">
  <g stroke="#C9A84C" stroke-width="3" stroke-linecap="square" stroke-linejoin="miter">
    <path d="M28 18H82L100 36V106H28V18Z"/>
    <path d="M82 18V36H100"/>

    <path d="M40 36H78"/>
    <path d="M40 50H84"/>
    <path d="M40 64H84"/>
    <path d="M40 78H68"/>

    <path d="M42 92H58"/>
    <path d="M64 92H80"/>

    <path d="M52 88C48 88 44 92 44 96C44 100 48 104 52 104H60"/>
    <path d="M76 88C80 88 84 92 84 96C84 100 80 104 76 104H68"/>
    <path d="M58 96H70"/>
  </g>
</svg>